<?xml version="1.0" standalone="no"?>
<!DOCTYPE svg PUBLIC "-//W3C//DTD SVG 20010904//EN"
 "http://www.w3.org/TR/2001/REC-SVG-20010904/DTD/svg10.dtd">
<svg version="1.0" xmlns="http://www.w3.org/2000/svg"
 width="830.000000pt" height="229.000000pt" viewBox="0 0 830.000000 229.000000"
 preserveAspectRatio="xMidYMid meet">

<g transform="translate(0.000000,229.000000) scale(0.100000,-0.100000)"
fill="#000000" stroke="none">
<path d="M606 1523 c-398 -793 -485 -957 -561 -1055 l-45 -58 229 0 228 0 6
73 c7 93 42 199 121 367 l63 135 329 0 328 0 62 -140 c81 -182 112 -277 120
-364 l7 -71 223 0 223 0 -69 103 c-103 154 -135 220 -509 1026 -190 409 -351
746 -358 748 -7 3 -163 -298 -397 -764z m486 -51 c54 -125 100 -235 104 -244
6 -17 -9 -18 -216 -18 -142 0 -220 4 -218 10 10 30 224 480 228 480 3 0 49
-103 102 -228z"/>
<path d="M7577 1710 c-272 -92 -410 -227 -479 -467 -19 -65 -22 -102 -22 -228
0 -135 3 -158 27 -231 64 -193 209 -330 402 -379 273 -70 594 94 720 367 46
103 65 197 65 330 0 199 -52 332 -179 459 -106 106 -220 157 -386 173 -50 4
-75 0 -148 -24z m232 -196 c110 -59 202 -189 231 -325 19 -85 8 -279 -18 -354
-27 -74 -79 -153 -140 -212 l-47 -45 -76 4 c-225 13 -391 203 -414 473 -18
211 59 397 195 468 50 26 62 29 135 25 65 -3 91 -10 134 -34z"/>
<path d="M3367 1715 c-188 -47 -319 -178 -356 -353 -25 -119 -7 -251 44 -332
34 -54 110 -117 167 -138 l50 -19 -38 -30 c-22 -16 -72 -47 -113 -68 -104 -55
-141 -92 -141 -142 0 -72 60 -116 198 -144 l62 -13 -47 -49 c-27 -27 -87 -76
-135 -108 -87 -59 -88 -60 -88 -102 0 -92 12 -111 108 -166 l87 -51 193 0
c328 0 428 29 561 161 58 58 86 104 106 174 37 126 -20 255 -135 308 -41 19
-69 22 -318 27 -273 5 -274 5 -293 29 -25 31 -24 67 4 116 l23 40 159 6 c130
4 172 10 225 28 129 45 212 118 251 220 32 84 24 212 -19 304 l-31 67 115 0
114 0 0 90 0 90 -174 0 -174 0 -68 32 c-62 29 -79 33 -174 35 -66 1 -126 -3
-163 -12z m204 -170 c55 -39 112 -127 134 -209 34 -126 3 -236 -86 -308 -32
-26 -45 -30 -100 -30 -114 -1 -186 47 -234 154 -55 121 -42 285 28 364 44 51
80 65 153 61 49 -2 71 -9 105 -32z m141 -1088 c78 -33 89 -131 22 -194 -53
-49 -126 -68 -269 -68 -133 0 -161 9 -209 65 -34 41 -35 108 -3 165 l23 40 99
6 c158 10 295 4 337 -14z"/>
<path d="M2138 1678 c15 -39 17 -99 17 -608 l0 -565 -27 -48 -27 -47 190 0
c104 0 189 2 189 5 0 3 -9 23 -20 45 -33 64 -40 156 -40 526 l0 350 33 31 c55
54 135 84 221 84 83 0 120 -14 173 -64 l32 -30 5 24 c7 35 36 257 36 280 0 48
-138 65 -236 28 -74 -28 -154 -108 -217 -219 l-49 -85 5 168 4 167 -153 0
-153 0 17 -42z"/>
<path d="M5711 1705 c-97 -22 -163 -58 -224 -125 -119 -128 -132 -292 -36
-442 40 -61 85 -101 211 -186 152 -103 178 -136 178 -230 -1 -130 -148 -214
-268 -153 -41 21 -119 100 -172 175 l-35 48 -6 -88 c-4 -49 -7 -126 -8 -171
l-1 -82 38 -11 c85 -24 238 -42 315 -36 259 21 399 168 384 405 -9 150 -61
227 -230 342 -182 123 -209 154 -209 239 0 69 36 126 100 159 33 17 143 15
187 -3 20 -9 59 -32 85 -51 26 -19 51 -35 54 -35 4 0 5 46 4 102 l-3 102 -75
24 c-95 29 -205 36 -289 17z"/>
<path d="M6571 1705 c-97 -22 -163 -58 -224 -125 -125 -135 -132 -323 -17
-468 43 -55 78 -84 205 -169 138 -93 165 -129 165 -220 0 -130 -148 -215 -268
-154 -41 21 -119 100 -172 175 l-35 48 -6 -88 c-4 -49 -7 -126 -8 -171 l-1
-82 38 -11 c20 -6 82 -18 137 -26 340 -53 565 93 565 367 0 157 -60 253 -233
370 -182 123 -209 154 -209 239 0 69 36 126 100 159 33 17 143 15 187 -3 20
-9 59 -32 85 -51 26 -19 51 -35 54 -35 4 0 5 46 4 102 l-3 102 -75 24 c-95 29
-205 36 -289 17z"/>
<path d="M4491 1689 c-46 -10 -86 -21 -90 -24 -6 -7 -72 -218 -68 -221 1 -2
36 14 77 34 69 34 80 37 165 37 82 0 96 -3 157 -33 93 -45 112 -75 116 -177
l3 -80 -43 -27 c-24 -14 -86 -43 -138 -63 -270 -106 -411 -213 -455 -346 -65
-193 117 -390 348 -377 l72 4 90 73 c133 108 125 107 125 6 l0 -85 149 0 149
0 -23 78 c-21 72 -22 102 -29 513 -7 483 -8 493 -72 568 -48 56 -108 95 -182
120 -80 27 -232 27 -351 0z m359 -893 l0 -185 -57 -11 c-65 -14 -156 -6 -214
17 -48 19 -85 61 -100 114 -14 46 -2 149 25 212 l16 37 165 0 165 0 0 -184z"/>
</g>
</svg>
